#!OML:ASF H:\Pregnant\Project 1\Capture day 1\Session 1\femalepreg.ASF
:FULLY-SPECIFIED
:DEGREES
555
root 3.73633 16.1144 10.7352 21.2704 -8.43593 0.65918
lowerback -12.8545 -1.48475 -3.446
upperback -5.24122 -1.59664 0.658885
thorax 1.81118 -0.764181 2.40169
lowerneck -19.6173 -9.82163 -7.62241
upperneck 20.9082 -14.1918 10.4324
head 11.3809 -5.87284 2.71124
rclavicle 1.83099e-014 1.73937e-015
rhumerus -39.4076 9.9133 -84.0266
rradius 28.1841
rwrist -5.68141
rhand -15.1717 -13.9051
rfingers 7.12502
rthumb 10.9992 -43.597
lclavicle 1.83099e-014 1.73937e-015
lhumerus -42.2794 -21.5597 90.9864
lradius 28.8256
lwrist 47.1534
lhand -2.2831 7.48533
lfingers 7.12502
lthumb 23.4018 36.0825
rfemur -34.5624 20.6587 5.12859
rtibia 27.9212
rfoot -8.31164 -27.5414
rtoes -12.9263
lfemur -17.6198 -8.30949 -15.7552
ltibia -2.46493e-014
lfoot 0.462212 19.3249
ltoes -4.32684
556
root 3.73902 16.1179 10.6986 21.5471 -8.42488 0.647195
lowerback -12.7881 -1.47876 -3.47878
upperback -5.29251 -1.58855 0.667398
thorax 1.72204 -0.757628 2.43212
lowerneck -19.7302 -9.64549 -7.43875
upperneck 21.1044 -13.9296 10.1326
head 11.4068 -5.76506 2.61961
rclavicle 6.18717e-015 1.11319e-014
rhumerus -39.4839 10.1775 -84.1327
rradius 28.2837
rwrist -5.75078
rhand -15.1509 -13.9134
rfingers 7.12502
rthumb 11.0192 -43.6041
lclavicle 6.18717e-015 1.11319e-014
lhumerus -42.4147 -22.0164 90.8872
lradius 29.1042
lwrist 47.7708
lhand -1.20687 7.79274
lfingers 7.12502
lthumb 24.4339 36.2545
rfemur -35.0441 20.4928 5.00202
rtibia 27.9475
rfoot -8.2536 -27.4648
rtoes -12.5976
lfemur -18.0992 -8.28102 -15.6615
ltibia -2.70347e-014
lfoot 0.606522 19.3052
ltoes -4.25093
557
root 3.74143 16.1216 10.6631 21.867 -8.41104 0.616638
lowerback -12.7693 -1.47376 -3.49502
upperback -5.3561 -1.58249 0.685814
thorax 1.6457 -0.752225 2.46251
lowerneck -19.8865 -9.46289 -7.24604
upperneck 21.3651 -13.6592 9.80691
head 11.4632 -5.65263 2.51683
rclavicle -1.1368e-015 1.33683e-014
rhumerus -39.5494 10.4195 -84.2198
rradius 28.3716
rwrist -5.80511
rhand -15.1091 -13.9281
rfingers 7.12502
rthumb 11.0596 -43.6167
lclavicle -1.1368e-015 1.33683e-014
lhumerus -42.5357 -22.3848 90.7533
lradius 29.3503
lwrist 48.1916
lhand -0.156827 8.04509
lfingers 7.12502
lthumb 25.4402 36.3673
rfemur -35.5605 20.333 4.87843
rtibia 27.9582
rfoot -8.19268 -27.4046
rtoes -12.2213
lfemur -18.6181 -8.24363 -15.5425
ltibia -4.21423e-014
lfoot 0.747817 19.3005
ltoes -4.16057
558
root 3.74357 16.1253 10.6291 22.2253 -8.39679 0.565722
lowerback -12.798 -1.4684 -3.49395
upperback -5.42666 -1.57664 0.715131
thorax 1.58755 -0.747251 2.49367
lowerneck -20.0881 -9.2798 -7.05251
upperneck 21.6827 -13.3882 9.46597
head 11.5502 -5.53872 2.40647
rclavicle -1.09269e-014 8.99501e-015
rhumerus -39.602 10.6396 -84.2849
rradius 28.455
rwrist -5.84913
rhand -15.0369 -13.9579
rfingers 7.12502
rthumb 11.1292 -43.6428
lclavicle -1.09269e-014 8.99501e-015
lhumerus -42.632 -22.6564 90.5804
lradius 29.5622
lwrist 48.4191
lhand 0.86147 8.23547
lfingers 7.12502
lthumb 26.4153 36.4151
rfemur -36.1054 20.1819 4.76195
rtibia 27.9537
rfoot -8.13489 -27.3589
rtoes -11.7929
lfemur -19.1665 -8.1946 -15.3993
ltibia 3.89618e-014
lfoot 0.870986 19.3149
ltoes -4.0461
559
root 3.74527 16.1289 10.5964 22.6197 -8.37636 0.49444
lowerback -12.8735 -1.46637 -3.47966
upperback -5.50082 -1.57546 0.75887
thorax 1.5513 -0.744965 2.53095
lowerneck -20.3361 -9.09568 -6.85242
upperneck 22.0477 -13.1144 9.10485
head 11.664 -5.4231 2.28615
rclavicle 1.74868e-014 -8.79622e-015
rhumerus -39.6386 10.8414 -84.3256
rradius 28.5382
rwrist -5.88278
rhand -14.9543 -13.9749
rfingers 7.12502
rthumb 11.2088 -43.6555
lclavicle 1.74868e-014 -8.79622e-015
lhumerus -42.7019 -22.8409 90.378
lradius 29.745
lwrist 48.4892
lhand 1.80795 8.36449
lfingers 7.12502
lthumb 27.3209 36.4048
rfemur -36.674 20.0447 4.65309
rtibia 27.9358
rfoot -8.10048 -27.3334
rtoes -11.277
lfemur -19.7438 -8.13866 -15.2296
ltibia 2.14687e-014
lfoot 0.965234 19.3514
ltoes -3.96761
560
root 3.74663 16.1323 10.565 23.0415 -8.34679 0.407285
lowerback -12.9858 -1.46832 -3.45525
upperback -5.57594 -1.57976 0.815368
thorax 1.53424 -0.745743 2.5744
lowerneck -20.5997 -8.91213 -6.65792
upperneck 22.4235 -12.8397 8.74578
head 11.7879 -5.30736 2.16656
rclavicle -2.84821e-014 1.54555e-014
rhumerus -39.6632 11.0229 -84.3421
rradius 28.6268
rwrist -5.91035
rhand -14.8596 -13.9926
rfingers 7.12502
rthumb 11.3002 -43.6682
lclavicle -2.84821e-014 1.54555e-014
lhumerus -42.7402 -22.9219 90.1352
lradius 29.9015
lwrist 48.3846
lhand 2.71635 8.49327
lfingers 7.12502
lthumb 28.1895 36.3935
rfemur -37.2595 19.9186 4.55116
rtibia 27.91
rfoot -8.09097 -27.3322
rtoes -10.7188
lfemur -20.3434 -8.08046 -15.0384
ltibia 1.55052e-014
lfoot 1.01624 19.4022
ltoes -3.94219
561
root 3.74774 16.1352 10.5346 23.479 -8.30993 0.305758
lowerback -13.1196 -1.47315 -3.4193
upperback -5.65278 -1.58882 0.880725
thorax 1.52719 -0.749125 2.61956
lowerneck -20.8409 -8.73 -6.47733
upperneck 22.7781 -12.5663 8.40786
head 11.9049 -5.19321 2.05691
rclavicle -2.80908e-014 -3.32964e-014
rhumerus -39.6885 11.1822 -84.3414
rradius 28.7306
rwrist -5.93706
rhand -14.773 -14.0149
rfingers 7.12502
rthumb 11.3837 -43.6859
lclavicle -2.80908e-014 -3.32964e-014
lhumerus -42.7544 -22.9095 89.8537
lradius 30.036
lwrist 48.1062
lhand 3.59151 8.62766
lfingers 7.12502
lthumb 29.0256 36.387
rfemur -37.8513 19.7953 4.46242
rtibia 27.8828
rfoot -8.11847 -27.362
rtoes -10.1335
lfemur -20.9537 -8.01963 -14.8301
ltibia -2.82274e-014
lfoot 1.0193 19.4548
ltoes -3.95341
562
root 3.74864 16.1374 10.5052 23.9162 -8.26955 0.194894
lowerback -13.2609 -1.47972 -3.37481
upperback -5.72556 -1.60111 0.950878
thorax 1.52856 -0.754395 2.66427
lowerneck -21.0329 -8.55129 -6.32042
upperneck 23.0799 -12.2971 8.1089
head 11.9996 -5.08216 1.96578
rclavicle 4.06266e-015 -1.10822e-014
rhumerus -39.7178 11.3215 -84.3291
rradius 28.8573
rwrist -5.97536
rhand -14.7196 -14.0277
rfingers 7.12502
rthumb 11.4352 -43.6959
lclavicle 4.06266e-015 -1.10822e-014
lhumerus -42.7468 -22.8022 89.5314
lradius 30.1568
lwrist 47.6396
lhand 4.42331 8.77974
lfingers 7.12502
lthumb 29.8198 36.3995
rfemur -38.4353 19.6741 4.3879
rtibia 27.8593
rfoot -8.17959 -27.4259
rtoes -9.59549
lfemur -21.5584 -7.95608 -14.6139
ltibia -3.18055e-015
lfoot 0.971268 19.4932
ltoes -3.98312
563
root 3.74941 16.1389 10.4765 24.3377 -8.23048 0.0768762
lowerback -13.3976 -1.48526 -3.31973
upperback -5.78592 -1.61343 1.01974
thorax 1.54008 -0.760165 2.7016
lowerneck -21.1793 -8.37918 -6.18422
upperneck 23.319 -12.0376 7.85226
head 12.0687 -4.97579 1.89292
rclavicle -2.57954e-014 -1.37658e-014
rhumerus -39.745 11.4316 -84.3085
rradius 29.0121
rwrist -6.02815
rhand -14.6889 -14.0553
rfingers 7.12502
rthumb 11.4648 -43.7218
lclavicle -2.57954e-014 -1.37658e-014
lhumerus -42.718 -22.6168 89.1716
lradius 30.2773
lwrist 46.9993
lhand 5.169 8.93348
lfingers 7.12502
lthumb 30.5312 36.4233
rfemur -38.9984 19.5441 4.33655
rtibia 27.8425
rfoot -8.2463 -27.5115
rtoes -9.25085
lfemur -22.1401 -7.88763 -14.3959
ltibia -1.74931e-014
lfoot 0.866807 19.4998
ltoes -3.94424
